# xmcd CD database file
#
# Track frame offsets:
#	150
#	37838
#	84862
#	92156
#	135984
#
# Disc length: 2452 seconds
#
# Revision: 0
# Processed by: cddbd v1.5.2PL0 Copyright (c) Steve Scherf et al.
# Submitted via: CDex 1.70beta2
#
DISCID=2b099205
DTITLE=Blakey, Art - Meet you at the Jazz Corner 1960
DYEAR=1960
DGENRE=Jazz
TTITLE0=The opener
TTITLE1=What know
TTITLE2=The theme
TTITLE3='round about midnight
TTITLE4=The breeze and I
EXTD=YEAR: 1960
EXTT0=
EXTT1=
EXTT2=
EXTT3=
EXTT4=
PLAYORDER=
